<?xml version="1.0" encoding="UTF-8"?>
<svg xmlns="http://www.w3.org/2000/svg" xmlns:xlink="http://www.w3.org/1999/xlink" width="600pt" height="600pt" viewBox="0 0 600 600" version="1.1">
<g id="surface1">
<rect x="0" y="0" width="600" height="600" style="fill:rgb(100%,100%,100%);fill-opacity:1;stroke:none;"/>
<path style=" stroke:none;fill-rule:nonzero;fill:rgb(82.855225%,83.494568%,82.43866%);fill-opacity:1;" d="M 429.476562 509.613281 C 429.476562 518.136719 371.507812 525.046875 300 525.046875 C 228.492188 525.046875 170.523438 518.136719 170.523438 509.613281 C 170.523438 501.089844 228.492188 494.179688 300 494.179688 C 371.507812 494.179688 429.476562 501.089844 429.476562 509.613281 "/>
<path style=" stroke:none;fill-rule:nonzero;fill:rgb(82.397461%,82.891846%,82.437134%);fill-opacity:1;" d="M 307.367188 470.152344 L 344.089844 450.164062 C 426.566406 405.269531 478 318.226562 478 223.539062 L 478 127.941406 C 478 120.5 472.164062 114.324219 464.808594 114.121094 C 378.027344 111.742188 324.195312 86.421875 306.476562 76.621094 C 302.445312 74.394531 297.554688 74.394531 293.523438 76.621094 C 275.804688 86.421875 221.972656 111.742188 135.191406 114.121094 C 127.835938 114.324219 122 120.5 122 127.941406 L 122 223.539062 C 122 318.226562 173.433594 405.269531 255.910156 450.164062 L 292.632812 470.152344 C 297.230469 472.65625 302.769531 472.65625 307.367188 470.152344 "/>
<path style=" stroke:none;fill-rule:nonzero;fill:rgb(28.845215%,64.836121%,87.966919%);fill-opacity:1;" d="M 460.398438 139.195312 L 460.398438 220.320312 C 460.398438 310.625 411.585938 393.277344 333.015625 436.054688 L 306.96875 450.226562 C 304.804688 451.402344 302.402344 452.003906 300 452.003906 C 297.597656 452.003906 295.195312 451.402344 293.03125 450.226562 L 266.984375 436.054688 C 188.414062 393.277344 139.601562 310.625 139.601562 220.320312 L 139.601562 139.195312 C 139.601562 135.359375 142.636719 132.214844 146.464844 131.945312 C 220.382812 126.917969 271.140625 107.332031 296.820312 94.785156 C 297.847656 94.277344 298.917969 94.03125 300 94.03125 C 301.082031 94.03125 302.152344 94.277344 303.179688 94.785156 C 328.859375 107.332031 379.628906 126.917969 453.535156 131.945312 C 457.363281 132.214844 460.398438 135.359375 460.398438 139.195312 "/>
<path style=" stroke:none;fill-rule:nonzero;fill:rgb(23.7854%,55.659485%,72.029114%);fill-opacity:1;" d="M 460.398438 139.195312 L 460.398438 220.320312 C 460.398438 310.625 411.585938 393.277344 333.015625 436.054688 L 306.96875 450.226562 C 304.804688 451.402344 302.402344 452.003906 300 452.003906 L 300 94.03125 C 301.082031 94.03125 302.152344 94.277344 303.179688 94.785156 C 328.859375 107.332031 379.628906 126.917969 453.535156 131.945312 C 457.363281 132.214844 460.398438 135.359375 460.398438 139.195312 "/>
<path style=" stroke:none;fill-rule:nonzero;fill:rgb(100%,100%,100%);fill-opacity:1;" d="M 311.769531 308.882812 L 311.769531 318.605469 C 311.769531 325.105469 306.496094 330.378906 300 330.378906 C 293.503906 330.378906 288.230469 325.105469 288.230469 318.605469 L 288.230469 308.882812 C 283.226562 305.257812 279.988281 299.359375 279.988281 292.710938 C 279.988281 281.65625 288.945312 272.699219 300 272.699219 C 311.054688 272.699219 320.011719 281.65625 320.011719 292.710938 C 320.011719 299.359375 316.773438 305.257812 311.769531 308.882812 Z M 360.996094 240.917969 L 239.003906 240.917969 C 231.742188 240.917969 225.84375 246.816406 225.84375 254.078125 L 225.84375 351.351562 C 225.84375 358.613281 231.742188 364.511719 239.003906 364.511719 L 360.996094 364.511719 C 368.257812 364.511719 374.15625 358.613281 374.15625 351.351562 L 374.15625 254.078125 C 374.15625 246.816406 368.257812 240.917969 360.996094 240.917969 "/>
<path style=" stroke:none;fill-rule:nonzero;fill:rgb(100%,100%,100%);fill-opacity:1;" d="M 343.550781 204.476562 L 343.550781 219.730469 C 343.550781 224.933594 339.335938 229.148438 334.136719 229.148438 C 328.933594 229.148438 324.71875 224.933594 324.71875 219.730469 L 324.71875 205.082031 C 324.71875 191.695312 314.328125 180.28125 300.953125 179.777344 C 286.890625 179.246094 275.28125 190.53125 275.28125 204.476562 L 275.28125 231.503906 L 256.449219 231.503906 L 256.449219 205.1875 C 256.449219 181.449219 275.148438 161.535156 298.875 160.9375 C 311.351562 160.625 322.660156 165.554688 330.792969 173.683594 C 338.679688 181.570312 343.550781 192.445312 343.550781 204.476562 "/>
</g>
</svg>
